<svg width="256" height="256" viewBox="0 0 256 256" fill="none" xmlns="http://www.w3.org/2000/svg">
<defs>
    <linearGradient id="flameGradient" x1="128" y1="14" x2="128" y2="150" gradientUnits="userSpaceOnUse">
        <stop stop-color="#FF2D2D"/>
        <stop offset="1" stop-color="#D60000"/>
    </linearGradient>
</defs>
<path d="M128.361 155.275C129.027 151.797 131.025 125.045 108.533 102.553C118.423 125.797 119.555 147.288 120.739 159.275C139.739 157.531 155.275 142.095 159.467 125.045C169.467 155.797 148.867 175.997 139.819 184.24C134.619 174.507 130.696 164.723 128.361 155.275Z" fill="#1C1C1C"/>
<path d="M106.661 175.553C85.539 181.488 64.9389 203.424 64 224C92.8345 224.221 113.348 201.328 123.834 175.553C120.443 175.811 114.159 176.133 106.661 175.553Z" fill="#1C1C1C"/>
<path d="M130.347 14.88C130.347 14.88 120.507 88.5867 157.813 113.813C125.493 93.44 130.347 14.88 130.347 14.88Z" fill="url(#flameGradient)"/>
<path d="M108.48 57.0667C108.48 57.0667 92.2133 119.307 131.52 145.493C105.333 121.813 108.48 57.0667 108.48 57.0667Z" fill="#FF4500"/>
<path d="M126.667 47.3067C126.667 47.3067 122.933 104.907 149.227 129.493C130.08 111.413 126.667 47.3067 126.667 47.3067Z" fill="#FF6347"/>
</svg>
